<svg xmlns="http://www.w3.org/2000/svg" xmlns:xlink="http://www.w3.org/1999/xlink" width="1080" zoomAndPan="magnify" viewBox="0 0 810 1439.999935" height="1920" preserveAspectRatio="xMidYMid meet" version="1.0"><defs><clipPath id="1f673983bf"><path d="M 121.5 514.265625 L 688.5 514.265625 L 688.5 1010.765625 L 121.5 1010.765625 Z M 121.5 514.265625 " clip-rule="nonzero"/></clipPath></defs><g clip-path="url(#1f673983bf)"><path fill="#ca9779" d="M 137.28125 708.105469 C 137.1875 707.855469 137.039062 707.652344 136.835938 707.488281 C 136.628906 707.328125 136.394531 707.230469 136.136719 707.199219 C 135.875 707.167969 135.625 707.207031 135.386719 707.3125 C 135.148438 707.421875 134.957031 707.585938 134.808594 707.804688 C 129.933594 715.09375 127.300781 723.242188 126.910156 732.253906 C 126.449219 742.769531 128.109375 752.730469 131.886719 762.140625 C 142.484375 788.585938 163.988281 798.933594 191.117188 801.378906 C 191.421875 801.40625 191.710938 801.492188 191.980469 801.636719 C 192.25 801.78125 192.480469 801.972656 192.671875 802.210938 C 192.863281 802.449219 193 802.714844 193.085938 803.007812 C 193.167969 803.300781 193.191406 803.597656 193.152344 803.898438 L 193.113281 804.101562 C 193.078125 804.390625 192.992188 804.660156 192.851562 804.917969 C 192.710938 805.171875 192.53125 805.394531 192.308594 805.578125 C 192.082031 805.765625 191.832031 805.90625 191.558594 805.996094 C 191.28125 806.089844 190.996094 806.125 190.707031 806.109375 C 178.699219 805.460938 167.667969 802.621094 157.609375 797.597656 C 147.425781 792.519531 139.835938 786.089844 133.796875 776.53125 C 119.980469 754.714844 115.601562 722.730469 133.546875 701.726562 C 133.882812 701.332031 134.105469 700.882812 134.21875 700.375 C 134.328125 699.871094 134.3125 699.367188 134.171875 698.867188 C 120.207031 649.648438 157.472656 582.34375 210.710938 575.617188 C 211.335938 575.542969 211.8125 575.238281 212.148438 574.707031 C 217.105469 566.84375 222.957031 560.019531 229.707031 554.238281 C 250.234375 536.628906 273.398438 523.398438 299.542969 519.019531 C 324.222656 514.894531 347.695312 518.035156 369.96875 528.441406 C 370.558594 528.726562 371.148438 528.71875 371.742188 528.417969 C 384.707031 521.738281 401.269531 517.445312 415.007812 515.539062 C 433.339844 513 450.589844 514.277344 466.761719 519.367188 C 486.382812 525.558594 504.105469 539.648438 517.183594 555.972656 C 518.667969 557.832031 519.929688 558.042969 522.4375 557.90625 C 534.144531 557.257812 544.332031 557.898438 553 559.828125 C 576.476562 565.046875 600.636719 577.164062 616.609375 595.660156 C 633.957031 615.726562 642.832031 639.039062 643.230469 665.597656 C 643.246094 666.503906 643.605469 667.238281 644.304688 667.804688 C 670.984375 689.246094 685.414062 721.457031 687.996094 755.441406 C 690.179688 784.230469 681.667969 821.371094 644.867188 821.273438 C 635.546875 821.246094 626.179688 818.980469 616.761719 814.46875 C 602.082031 807.433594 586.410156 796.113281 577.085938 789.136719 C 546.210938 766.023438 519.777344 745.792969 489.113281 730.167969 C 467.636719 719.222656 445.734375 712.335938 422.710938 709.601562 C 422.503906 709.578125 422.304688 709.589844 422.105469 709.640625 C 421.90625 709.691406 421.722656 709.773438 421.554688 709.890625 C 421.386719 710.007812 421.246094 710.152344 421.132812 710.320312 C 421.015625 710.492188 420.933594 710.675781 420.886719 710.875 C 419.402344 717.0625 417.890625 723.605469 416.90625 730.304688 C 413.898438 750.921875 410.492188 769.84375 395.128906 784.429688 C 370.566406 807.78125 320.011719 819.835938 298.234375 786.691406 C 286.128906 768.257812 292.292969 749.648438 308.929688 736.421875 C 339.332031 712.234375 377.882812 701.550781 416.519531 704.347656 C 416.75 704.363281 416.980469 704.34375 417.207031 704.285156 C 417.433594 704.222656 417.644531 704.128906 417.839844 703.996094 C 418.03125 703.867188 418.199219 703.707031 418.34375 703.519531 C 418.484375 703.332031 418.59375 703.125 418.664062 702.898438 C 421.769531 693.472656 426.21875 684.480469 432.019531 675.917969 C 432.140625 675.738281 432.222656 675.539062 432.261719 675.324219 C 432.304688 675.109375 432.296875 674.894531 432.246094 674.679688 C 432.195312 674.46875 432.101562 674.273438 431.96875 674.097656 C 431.835938 673.921875 431.675781 673.78125 431.484375 673.671875 C 420.460938 667.480469 411.328125 661.664062 401.179688 653.753906 C 381.363281 638.304688 366.773438 625.597656 346.894531 619.320312 C 325.675781 612.605469 304.460938 616.652344 285.367188 628.617188 C 265.839844 640.867188 251.695312 657.515625 242.933594 678.5625 C 239.015625 687.984375 236.671875 699.628906 241.949219 708.914062 C 242.003906 709.015625 242.074219 709.105469 242.152344 709.191406 C 242.234375 709.273438 242.324219 709.34375 242.421875 709.40625 C 242.519531 709.464844 242.625 709.511719 242.734375 709.542969 C 242.84375 709.578125 242.957031 709.597656 243.074219 709.601562 C 243.1875 709.605469 243.300781 709.59375 243.414062 709.570312 C 243.527344 709.546875 243.632812 709.507812 243.738281 709.453125 C 243.839844 709.402344 243.933594 709.335938 244.019531 709.261719 C 244.105469 709.183594 244.179688 709.097656 244.246094 709.003906 C 250.578125 699.601562 257.78125 691.386719 265.859375 684.355469 C 276.382812 675.195312 291.183594 668.78125 305.109375 674.28125 C 312.375 677.152344 317.191406 683.628906 316.417969 691.753906 C 315.34375 703.085938 306.40625 711.535156 296.671875 716.429688 C 283.046875 723.292969 265.75 726.847656 251.109375 721.257812 C 248.6875 720.335938 246.316406 718.335938 244.296875 717.949219 C 244.027344 717.898438 243.769531 717.917969 243.515625 718.015625 C 243.261719 718.113281 243.058594 718.269531 242.898438 718.488281 C 229.769531 736.207031 219.511719 757.5625 219.695312 779.453125 C 219.835938 794.925781 225.113281 810.703125 236.382812 821.570312 C 245.277344 830.148438 255.511719 835.8125 267.082031 838.558594 C 290.222656 844.035156 314.371094 841.476562 337.632812 835.921875 C 352.433594 832.378906 364.601562 829.097656 378.667969 828.898438 C 387.21875 828.78125 396.140625 829.054688 405.425781 829.722656 C 405.601562 829.734375 405.769531 829.710938 405.933594 829.648438 C 406.097656 829.585938 406.242188 829.496094 406.367188 829.371094 C 406.492188 829.246094 406.582031 829.097656 406.644531 828.933594 C 406.703125 828.769531 406.726562 828.597656 406.710938 828.421875 C 405.835938 817.839844 412.101562 805.148438 418.976562 798.660156 C 428.261719 789.871094 439.730469 788.199219 452.3125 788.125 C 464.453125 788.0625 482.851562 790.222656 497.316406 787.265625 C 504.4375 785.800781 510.550781 784.644531 515.660156 783.792969 C 527.226562 781.882812 538.355469 783.601562 549.054688 788.960938 C 566.964844 797.921875 581.316406 813.648438 583.75 833.539062 C 585.117188 844.746094 582.910156 854.703125 577.136719 863.40625 C 565.457031 881.050781 542.980469 884.320312 522.949219 879.589844 C 503.066406 874.910156 483.824219 864.214844 466.152344 853.347656 C 449.003906 842.789062 432.90625 837.273438 412.863281 835.574219 C 412.703125 835.5625 412.550781 835.582031 412.402344 835.640625 C 412.257812 835.695312 412.128906 835.78125 412.019531 835.898438 C 411.910156 836.015625 411.835938 836.148438 411.789062 836.296875 C 411.738281 836.449219 411.726562 836.601562 411.75 836.761719 C 412.875 843.941406 415.203125 850.753906 418.742188 857.203125 C 427.234375 872.726562 438.585938 885.820312 452.796875 896.476562 C 470.507812 909.769531 483.1875 917.78125 494.15625 932.144531 C 506.625 948.480469 510.519531 970.59375 507.847656 991.210938 C 506.972656 997.984375 505.132812 1004.203125 502.320312 1009.871094 C 502.1875 1010.136719 502.007812 1010.367188 501.78125 1010.5625 C 501.558594 1010.757812 501.300781 1010.902344 501.019531 1010.992188 C 500.734375 1011.082031 500.441406 1011.117188 500.144531 1011.089844 C 499.84375 1011.066406 499.5625 1010.984375 499.296875 1010.84375 L 499.222656 1010.804688 C 498.949219 1010.664062 498.710938 1010.472656 498.503906 1010.242188 C 498.300781 1010.007812 498.144531 1009.742188 498.042969 1009.453125 C 497.9375 1009.160156 497.886719 1008.855469 497.894531 1008.546875 C 497.902344 1008.234375 497.96875 1007.9375 498.089844 1007.648438 C 503.929688 993.871094 504.539062 979.042969 502.40625 964.691406 C 500.183594 949.800781 493.390625 936.867188 482.027344 925.890625 C 469.894531 914.1875 454.707031 904.5 443.636719 895.367188 C 427.066406 881.664062 409.21875 858.226562 406.796875 836.472656 C 406.769531 836.238281 406.707031 836.011719 406.601562 835.800781 C 406.496094 835.585938 406.355469 835.398438 406.183594 835.234375 C 406.011719 835.070312 405.816406 834.941406 405.597656 834.84375 C 405.378906 834.746094 405.152344 834.691406 404.914062 834.675781 C 390.996094 833.828125 378.09375 832.992188 365.800781 835.039062 C 357.738281 836.367188 347.550781 838.558594 335.238281 841.601562 C 325.195312 844.082031 313.785156 845.6875 301.003906 846.417969 C 277.144531 847.792969 252.382812 842.8125 234.585938 826.726562 C 221.167969 814.59375 214.394531 795.886719 214.679688 778.078125 C 215.066406 755.515625 225.800781 732.863281 239.601562 715.117188 C 239.785156 714.886719 239.875 714.621094 239.871094 714.328125 C 239.863281 714.03125 239.765625 713.769531 239.578125 713.546875 C 235.078125 708.171875 233.160156 701.808594 233.824219 694.464844 C 234.359375 688.433594 236.421875 681.171875 238.828125 675.59375 C 252.132812 644.707031 280.773438 617.898438 314.667969 611.808594 C 336.496094 607.890625 359.324219 616.625 377.292969 629.40625 C 381.730469 632.566406 389.835938 638.800781 401.617188 648.113281 C 411.933594 656.28125 422.714844 663.429688 433.953125 669.554688 C 434.207031 669.691406 434.472656 669.777344 434.757812 669.820312 C 435.042969 669.859375 435.324219 669.851562 435.605469 669.789062 C 435.886719 669.730469 436.148438 669.621094 436.390625 669.46875 C 436.628906 669.3125 436.839844 669.121094 437.011719 668.890625 C 455.507812 644.429688 486.257812 628.058594 517.519531 631.050781 C 531.722656 632.425781 547.246094 641.171875 550.554688 656.386719 C 555.234375 677.925781 536.488281 689.257812 517.757812 692.167969 C 491.011719 696.324219 462.109375 689.234375 437.933594 677.027344 C 437.652344 676.886719 437.363281 676.855469 437.058594 676.941406 C 436.753906 677.023438 436.519531 677.199219 436.351562 677.464844 C 431.796875 684.738281 427.75 692.578125 424.207031 700.988281 C 423.742188 702.089844 423.464844 702.921875 423.382812 703.484375 C 423.355469 703.671875 423.363281 703.855469 423.410156 704.039062 C 423.457031 704.21875 423.539062 704.386719 423.652344 704.535156 C 423.765625 704.683594 423.90625 704.804688 424.066406 704.898438 C 424.230469 704.992188 424.40625 705.050781 424.59375 705.070312 C 448.878906 707.890625 470.019531 715.167969 491.921875 726.3125 C 508.261719 734.640625 525.195312 745.167969 542.714844 757.898438 C 567.292969 775.753906 584.4375 788.242188 594.148438 795.363281 C 613.027344 809.203125 635.304688 821.570312 658.542969 813.957031 C 673.757812 808.96875 680.980469 791.457031 682.492188 776.207031 C 685.972656 741 674.929688 704.585938 649.933594 679.351562 C 647.828125 677.21875 645.769531 675.480469 643.753906 674.132812 C 643.558594 673.996094 643.355469 673.984375 643.144531 674.09375 C 642.933594 674.207031 642.828125 674.382812 642.832031 674.621094 C 642.824219 682.53125 640.871094 689.742188 636.976562 696.246094 C 628.042969 711.199219 610.621094 720.085938 593.996094 711.199219 C 576.113281 701.625 574.925781 678.9375 588.117188 664.898438 C 600.847656 651.34375 621.976562 654.039062 636.867188 663.402344 C 637.195312 663.605469 637.53125 663.609375 637.867188 663.414062 C 638.203125 663.21875 638.363281 662.929688 638.351562 662.539062 C 637.800781 650.050781 634.992188 637.8125 629.925781 625.824219 C 612.316406 584.113281 568.351562 561.113281 524.320312 562.324219 C 524.117188 562.332031 523.921875 562.382812 523.746094 562.484375 C 523.566406 562.582031 523.417969 562.71875 523.308594 562.890625 C 523.195312 563.058594 523.128906 563.246094 523.109375 563.449219 C 523.089844 563.652344 523.121094 563.847656 523.199219 564.035156 C 523.996094 565.980469 525.003906 568.300781 526.21875 570.984375 C 528.191406 575.371094 529.195312 580.242188 529.238281 585.601562 C 529.386719 602.761719 513.714844 617.773438 496.253906 615.515625 C 470.21875 612.144531 469.234375 582.828125 487.828125 569.613281 C 494.726562 564.722656 502.738281 561.351562 511.867188 559.503906 C 511.960938 559.488281 512.054688 559.457031 512.144531 559.414062 C 512.234375 559.371094 512.3125 559.316406 512.390625 559.253906 C 512.464844 559.1875 512.527344 559.113281 512.582031 559.03125 C 512.636719 558.953125 512.683594 558.863281 512.714844 558.769531 C 512.746094 558.675781 512.765625 558.582031 512.773438 558.480469 C 512.78125 558.382812 512.773438 558.285156 512.757812 558.1875 C 512.738281 558.089844 512.707031 557.996094 512.664062 557.90625 C 512.621094 557.816406 512.566406 557.734375 512.503906 557.65625 C 495.253906 537.828125 474.3125 523 447.292969 520.21875 C 423.625 517.78125 400.660156 521.328125 378.40625 530.863281 C 378.023438 531.023438 377.820312 531.3125 377.792969 531.726562 C 377.769531 532.140625 377.933594 532.457031 378.292969 532.671875 C 390.808594 540.109375 398.046875 551.292969 394.964844 565.667969 C 393.242188 573.71875 387.253906 580.609375 379.230469 583.554688 C 354.769531 592.515625 330.195312 563.472656 351 542.519531 C 354.519531 538.964844 358.480469 535.714844 362.878906 532.761719 C 363.085938 532.621094 363.242188 532.4375 363.347656 532.210938 C 363.453125 531.980469 363.492188 531.742188 363.464844 531.496094 C 363.4375 531.246094 363.347656 531.023438 363.195312 530.824219 C 363.042969 530.625 362.851562 530.480469 362.617188 530.390625 C 334.589844 519.605469 306.433594 519.492188 278.152344 530.050781 C 256.039062 538.3125 234.125 554.125 218.847656 572.996094 C 218.597656 573.308594 218.550781 573.648438 218.710938 574.015625 C 218.871094 574.378906 219.152344 574.574219 219.546875 574.59375 C 222.933594 574.800781 226.054688 575.230469 228.90625 575.878906 C 240.625 578.535156 251.996094 587.734375 252.21875 600.613281 C 252.417969 611.84375 242.996094 617.796875 232.726562 617.613281 C 226.402344 617.488281 220.957031 615.265625 216.390625 610.945312 C 207.855469 602.859375 205.332031 593.269531 208.828125 582.179688 C 208.851562 582.097656 208.867188 582.015625 208.871094 581.929688 C 208.875 581.839844 208.867188 581.757812 208.851562 581.671875 C 208.832031 581.589844 208.800781 581.507812 208.761719 581.429688 C 208.722656 581.355469 208.675781 581.285156 208.617188 581.21875 C 208.558594 581.15625 208.492188 581.101562 208.417969 581.054688 C 208.347656 581.007812 208.269531 580.972656 208.1875 580.945312 C 208.105469 580.917969 208.019531 580.902344 207.933594 580.898438 C 207.847656 580.894531 207.761719 580.902344 207.679688 580.921875 C 174.15625 588.007812 151.15625 616.539062 140.847656 647.664062 C 135.691406 663.238281 134.804688 679.121094 138.191406 695.3125 C 138.222656 695.46875 138.289062 695.609375 138.390625 695.730469 C 138.496094 695.851562 138.621094 695.941406 138.769531 696.003906 C 138.917969 696.0625 139.070312 696.082031 139.230469 696.0625 C 139.386719 696.042969 139.53125 695.988281 139.664062 695.898438 C 142.085938 694.199219 144.480469 692.699219 146.851562 691.394531 C 157.035156 685.738281 171.960938 684.941406 181.957031 691.179688 C 196.246094 700.117188 200.765625 722.582031 185.054688 732.664062 C 171.550781 741.339844 152.117188 733.5625 144.054688 721.246094 C 141.042969 716.636719 138.785156 712.253906 137.28125 708.105469 Z M 370.28125 534.382812 C 360.894531 538.898438 346.058594 550.058594 348.203125 561.851562 C 350.050781 572.007812 356.132812 578.054688 366.449219 579.984375 C 377.757812 582.105469 387.703125 574.867188 390.296875 564.058594 C 393.570312 550.480469 382.722656 539.488281 371.203125 534.371094 C 370.894531 534.226562 370.589844 534.234375 370.28125 534.382812 Z M 515.023438 563.808594 C 502.667969 566.667969 486.308594 571.921875 481.613281 585.226562 C 475.960938 601.261719 487.230469 612.382812 502.929688 610.558594 C 514.722656 609.1875 524.109375 597.929688 524.171875 586.113281 C 524.214844 578.53125 522.089844 571.472656 517.804688 564.933594 C 517.507812 564.472656 517.101562 564.140625 516.589844 563.933594 C 516.082031 563.726562 515.558594 563.6875 515.023438 563.808594 Z M 216.066406 579.859375 C 215.703125 579.886719 215.378906 580.007812 215.085938 580.226562 C 214.796875 580.445312 214.585938 580.726562 214.457031 581.070312 C 211.203125 589.871094 211.890625 597.5625 216.515625 604.144531 C 220.859375 610.3125 228.769531 613.257812 236.097656 612.519531 C 242.910156 611.84375 247.578125 606.855469 247.054688 599.914062 C 245.90625 584.625 228.996094 578.910156 216.066406 579.859375 Z M 441.21875 673.257812 C 464.605469 685.117188 491.609375 691.195312 517.769531 687.261719 C 530.363281 685.367188 547.347656 676.855469 546.324219 661.726562 C 544.949219 641.222656 523.035156 634.222656 505.886719 635.820312 C 479.023438 638.324219 457.359375 650.316406 440.890625 671.800781 C 440.804688 671.914062 440.746094 672.042969 440.714844 672.1875 C 440.683594 672.328125 440.6875 672.46875 440.71875 672.609375 C 440.75 672.75 440.808594 672.878906 440.894531 672.992188 C 440.980469 673.105469 441.089844 673.195312 441.21875 673.257812 Z M 638.3125 671.164062 C 638.304688 670.792969 638.214844 670.449219 638.039062 670.125 C 637.867188 669.800781 637.628906 669.535156 637.328125 669.328125 C 624.125 660.082031 603.28125 655.738281 591.351562 668.59375 C 586.34375 673.984375 583.910156 680.203125 584.050781 687.25 C 584.386719 704.382812 603.21875 715.265625 618.65625 707.09375 C 631.960938 700.054688 638.636719 685.964844 638.3125 671.164062 Z M 247.089844 713.484375 C 248.675781 716.503906 258.757812 718.597656 260.792969 718.785156 C 274.421875 720.007812 290.023438 715.964844 301.277344 707.605469 C 307.445312 703.035156 313.371094 694.5625 311.050781 686.9375 C 309.289062 681.210938 304.425781 678.328125 298.496094 677.613281 C 289.328125 676.523438 280.800781 678.964844 272.910156 684.929688 C 263.101562 692.339844 254.816406 702.339844 247.164062 712.535156 C 246.941406 712.832031 246.917969 713.148438 247.089844 713.484375 Z M 140.535156 703.3125 C 142.492188 709.683594 145.574219 715.542969 149.785156 720.882812 C 153.613281 725.726562 158.878906 728.910156 165.585938 730.441406 C 172.671875 732.066406 181.546875 731.367188 186.125 725.351562 C 189.488281 720.941406 190.621094 715.992188 189.53125 710.5 C 186.550781 695.398438 172.960938 689.558594 158.644531 692.402344 C 152.664062 693.59375 146.898438 696.371094 141.347656 700.742188 C 140.960938 701.046875 140.691406 701.433594 140.542969 701.902344 C 140.398438 702.371094 140.394531 702.839844 140.535156 703.3125 Z M 415.445312 709.027344 C 388.5625 707.355469 363.035156 712.195312 338.855469 723.554688 C 325.367188 729.894531 310.375 738.929688 302.226562 750.511719 C 289.324219 768.832031 302.113281 792.417969 321.132812 799.144531 C 329.914062 802.257812 338.960938 803.003906 348.277344 801.390625 C 372.503906 797.199219 395.777344 784.519531 405 760.769531 C 407.28125 754.902344 408.792969 749.644531 409.542969 744.996094 C 412.039062 729.53125 412.976562 720.859375 416.121094 710 C 416.152344 709.890625 416.160156 709.777344 416.140625 709.664062 C 416.121094 709.550781 416.082031 709.449219 416.015625 709.351562 C 415.949219 709.257812 415.867188 709.183594 415.765625 709.125 C 415.667969 709.070312 415.558594 709.035156 415.445312 709.027344 Z M 411.226562 829.210938 C 411.230469 829.558594 411.347656 829.863281 411.578125 830.125 C 411.808594 830.382812 412.097656 830.53125 412.4375 830.570312 C 424.457031 831.96875 436.0625 833.953125 447.144531 838.21875 C 452.851562 840.417969 459.699219 843.914062 467.6875 848.714844 C 490.835938 862.65625 515.535156 877.820312 543.390625 876.394531 C 561.636719 875.460938 575.925781 863.953125 578.546875 845.445312 C 582.164062 819.886719 563.59375 799.582031 541.09375 790.707031 C 535.753906 788.59375 530.386719 787.691406 524.996094 788 C 517.738281 788.417969 512.933594 788.921875 510.582031 789.511719 C 497.285156 792.839844 483.894531 794.183594 470.40625 793.542969 C 460.035156 793.054688 451.824219 792.878906 442.691406 793.753906 C 429.808594 794.976562 420.703125 801.007812 415.371094 811.851562 C 412.566406 817.550781 411.1875 823.335938 411.226562 829.210938 Z M 411.226562 829.210938 " fill-opacity="1" fill-rule="nonzero"/></g></svg>